HIERARCHY
ROOT Hips
{
	OFFSET 0.000000 0.000000 0.000000
	CHANNELS 6 Xposition Yposition Zposition Zrotation Yrotation Xrotation 
	JOINT LowerBack
	{
		OFFSET 0.000000 0.000000 0.000000
		CHANNELS 3 Zrotation Yrotation Xrotation
		JOINT Spine
		{
			OFFSET 0.028270 2.035590 -0.193380
			CHANNELS 3 Zrotation Yrotation Xrotation
			JOINT Spine1
			{
				OFFSET 0.056720 2.048850 -0.042750
				CHANNELS 3 Zrotation Yrotation Xrotation
				JOINT Neck
				{
					OFFSET 0.000000 0.000000 0.000000
					CHANNELS 3 Zrotation Yrotation Xrotation
					JOINT Neck1
					{
						OFFSET -0.054170 1.746240 0.172020
						CHANNELS 3 Zrotation Yrotation Xrotation
						JOINT Head
						{
							OFFSET 0.104070 1.761360 -0.123970
							CHANNELS 3 Zrotation Yrotation Xrotation
							End Site
							{
								OFFSET 0.000000 0.000000 0.000000
							}
						}
					}
				}
				JOINT LeftShoulder
				{
					OFFSET 0.000000 0.000000 0.000000
					CHANNELS 3 Zrotation Yrotation Xrotation
					JOINT LeftArm
					{
						OFFSET 3.362410 1.200890 -0.311210
						CHANNELS 3 Zrotation Yrotation Xrotation
						JOINT LeftForeArm
						{
							OFFSET 4.983000 -0.000000 -0.000000
							CHANNELS 3 Zrotation Yrotation Xrotation
							JOINT LeftHand
							{
								OFFSET 3.483560 -0.000000 -0.000000
								CHANNELS 3 Zrotation Yrotation Xrotation
								JOINT LeftFingerBase
								{
									OFFSET 0.000000 0.000000 0.000000
									CHANNELS 3 Zrotation Yrotation Xrotation
									JOINT LeftHandIndex1
									{
										OFFSET 0.715260 -0.000000 -0.000000
										CHANNELS 3 Zrotation Yrotation Xrotation
										End Site
										{
											OFFSET 0.000000 0.000000 0.000000
										}
									}
								}
								JOINT LThumb
								{
									OFFSET 0.000000 0.000000 0.000000
									CHANNELS 3 Zrotation Yrotation Xrotation
									End Site
									{
										OFFSET 0.000000 0.000000 0.000000
									}
								}
							}
						}
					}
				}
				JOINT RightShoulder
				{
					OFFSET 0.000000 0.000000 0.000000
					CHANNELS 3 Zrotation Yrotation Xrotation
					JOINT RightArm
					{
						OFFSET -3.136600 1.374050 -0.404650
						CHANNELS 3 Zrotation Yrotation Xrotation
						JOINT RightForeArm
						{
							OFFSET -5.241900 -0.000000 -0.000000
							CHANNELS 3 Zrotation Yrotation Xrotation
							JOINT RightHand
							{
								OFFSET -3.444170 -0.000000 -0.000000
								CHANNELS 3 Zrotation Yrotation Xrotation
								JOINT RightFingerBase
								{
									OFFSET 0.000000 0.000000 0.000000
									CHANNELS 3 Zrotation Yrotation Xrotation
									JOINT RightHandIndex1
									{
										OFFSET -0.622530 -0.000000 -0.000000
										CHANNELS 3 Zrotation Yrotation Xrotation
										End Site
										{
											OFFSET 0.000000 0.000000 0.000000
										}
									}
								}
								JOINT RThumb
								{
									OFFSET 0.000000 0.000000 0.000000
									CHANNELS 3 Zrotation Yrotation Xrotation
									End Site
									{
										OFFSET 0.000000 0.000000 0.000000
									}
								}
							}
						}
					}
				}
			}
		}
	}
}
}
MOTION
Frames: 15
Frame Time: 0.008333
4.107008 17.607298 -0.138325 -8.370386 82.202779 14.032010 -1.115122 -1.841600 1.535367 -1.077797 -1.792503 -2.661335 -7.270589 -1.891408 0.325897 10.085725 -1.524124 -4.248919 -3.567175 -0.284669 0.725665 0.000000 0.000000 0.000000 -6.640925 1.855505 3.710896 -55.159800 -17.717857 16.228024 -4.009833 -42.100155 0.025478 -10.228502 -0.210693 0.031292 -0.091085 0.127264 0.000000 0.000000 0.000000 0.000000 0.000000 0.000000 0.000000 15.235893 0.363645 1.712536 60.015178 11.599860 -0.268145 2.674493 37.022411 0.019277 4.015313 10.488040 0.372395 0.033850 -0.173545 -0.000000 0.000000 0.000000 0.000000 0.000000 0.000000 0.000000 
4.376600 17.611263 -0.115734 -9.155966 82.695123 13.106124 -0.659013 -2.061580 1.557508 -0.996952 -2.040358 -2.644370 -7.393474 -2.135279 0.331302 10.333153 -1.711362 -4.191341 -3.612190 -0.288122 0.745285 0.000000 0.000000 0.000000 -5.959219 1.365277 3.742614 -54.283508 -19.091157 16.815522 -3.840145 -44.637973 0.028211 -10.206842 -0.309556 0.041331 -0.083262 0.141890 0.000000 0.000000 0.000000 0.000000 0.000000 0.000000 0.000000 15.675827 0.031599 1.753478 60.546410 10.634637 -0.749557 2.734711 35.974385 0.019104 4.080101 10.373973 0.373987 0.035500 -0.165201 -0.000000 0.000000 0.000000 0.000000 0.000000 0.000000 0.000000 
4.646277 17.603635 -0.087644 -8.986120 83.272481 13.150810 -0.355039 -2.307987 1.552368 -0.946702 -2.307302 -2.627321 -7.510392 -2.397369 0.350995 10.600984 -1.968906 -4.150943 -3.655619 -0.291428 0.760250 0.000000 0.000000 0.000000 -5.200065 0.859937 3.767908 -53.237164 -20.447341 17.259941 -3.653248 -47.176060 0.030940 -10.186004 -0.375369 0.048458 -0.074459 0.157075 0.000000 0.000000 0.000000 0.000000 0.000000 0.000000 0.000000 16.143090 -0.383853 1.789320 60.988006 9.622545 -0.947257 2.790114 35.194667 0.019017 4.258480 10.238208 0.384979 0.036245 -0.156554 -0.000000 0.000000 0.000000 0.000000 0.000000 0.000000 0.000000 
4.915782 17.584716 -0.054038 -7.574887 83.932133 14.451163 -0.203406 -2.577357 1.528996 -0.927812 -2.589994 -2.607887 -7.619925 -2.673967 0.386440 10.886305 -2.310651 -4.135003 -3.696843 -0.294477 0.768395 0.000000 0.000000 0.000000 -4.366228 0.347801 3.783970 -52.028921 -21.804240 17.543168 -3.450048 -49.680040 0.033713 -10.176838 -0.416123 0.053476 -0.064422 0.172823 0.000000 0.000000 0.000000 0.000000 0.000000 0.000000 0.000000 16.634885 -0.895387 1.817784 61.349873 8.572731 -0.867375 2.839851 34.694798 0.018976 4.540539 10.092763 0.404571 0.036173 -0.147787 -0.000000 0.000000 0.000000 0.000000 0.000000 0.000000 0.000000 
5.184945 17.554808 -0.015201 -4.504166 84.670097 17.427229 -0.189231 -2.867627 1.494673 -0.938075 -2.887352 -2.585467 -7.719304 -2.963888 0.434453 11.181925 -2.736444 -4.145009 -3.734535 -0.297177 0.769276 0.000000 0.000000 0.000000 -3.461657 -0.175419 3.788007 -50.673756 -23.157232 17.642018 -3.231245 -52.123915 0.036580 -10.187623 -0.436392 0.056882 -0.052834 0.189161 -0.000000 0.000000 0.000000 0.000000 0.000000 0.000000 0.000000 17.137944 -1.502130 1.837751 61.646391 7.479833 -0.547815 2.882126 34.481149 0.018942 4.910851 9.948123 0.431263 0.035356 -0.139116 -0.000000 0.000000 0.000000 0.000000 0.000000 0.000000 0.000000 
5.453583 17.514327 0.028267 0.847526 85.480658 22.699924 -0.275351 -3.179059 1.459791 -0.971117 -3.201676 -2.558388 -7.806136 -3.269149 0.494320 11.479450 -3.252273 -4.185000 -3.767362 -0.299393 0.761752 0.000000 0.000000 0.000000 -2.496627 -0.706791 3.776571 -49.185839 -24.509247 17.538737 -2.999196 -54.479773 0.039608 -10.225575 -0.443113 0.059275 -0.039411 0.206152 -0.000000 0.000000 0.000000 0.000000 0.000000 0.000000 0.000000 17.638686 -2.211398 1.848341 61.885230 6.359729 -0.025113 2.915949 34.539611 0.018879 5.341803 9.819967 0.463155 0.033978 -0.130765 -0.000000 0.000000 0.000000 0.000000 0.000000 0.000000 0.000000 
5.721749 17.463751 0.075452 9.309642 86.348360 31.101300 -0.384936 -3.508225 1.429642 -1.012407 -3.533635 -2.528091 -7.880155 -3.590705 0.559624 11.767438 -3.832863 -4.249537 -3.794088 -0.301078 0.747450 0.000000 0.000000 0.000000 -1.492673 -1.246146 3.748978 -47.572611 -25.851500 17.223491 -2.757111 -56.727103 0.042846 -10.289791 -0.439983 0.060956 -0.024051 0.223897 -0.000000 0.000000 0.000000 0.000000 0.000000 0.000000 0.000000 18.114984 -2.995052 1.849915 62.081868 5.187826 0.606897 2.939640 34.866281 0.018764 5.823673 9.709418 0.499247 0.032018 -0.122910 -0.000000 0.000000 0.000000 0.000000 0.000000 0.000000 0.000000 
5.989299 17.403626 0.125394 21.750151 87.192631 43.490277 -0.427132 -3.831943 1.420535 -1.041754 -3.863525 -2.491305 -7.942327 -3.908974 0.634539 12.038085 -4.502257 -4.349357 -3.812625 -0.301926 0.723462 0.000000 0.000000 0.000000 -0.466859 -1.769950 3.695387 -45.849500 -27.188856 16.679893 -2.507848 -58.842045 0.046325 -10.383439 -0.433147 0.062621 -0.006424 0.242350 -0.000000 0.000000 0.000000 0.000000 0.000000 0.000000 0.000000 18.552677 -3.867418 1.845538 62.233130 4.031463 1.337541 2.955398 35.396273 0.018623 6.301615 9.637244 0.536339 0.030034 -0.115882 -0.000000 0.000000 0.000000 0.000000 0.000000 0.000000 0.000000 
6.256608 17.334556 0.177048 38.027978 87.827450 59.721318 -0.381789 -4.097000 1.429673 -1.048801 -4.137490 -2.452687 -7.994043 -4.172095 0.707494 12.281616 -5.209860 -4.472652 -3.821471 -0.301897 0.693264 0.000000 0.000000 0.000000 0.550372 -2.247481 3.612793 -44.012276 -28.498358 15.907650 -2.255137 -60.818082 0.049986 -10.496951 -0.424056 0.064268 0.013338 0.261262 -0.000000 0.000000 0.000000 0.000000 0.000000 0.000000 0.000000 18.927978 -4.745666 1.840179 62.359200 2.848523 2.037807 2.962607 36.117905 0.018506 6.781842 9.584918 0.574133 0.027941 -0.110009 -0.000000 0.000000 0.000000 0.000000 0.000000 0.000000 0.000000 
6.523782 17.257147 0.229584 55.748066 88.076274 77.376523 -0.381976 -4.280380 1.473254 -1.056290 -4.324456 -2.407455 -8.026506 -4.349332 0.779497 12.492842 -5.975449 -4.624189 -3.817930 -0.300727 0.655318 0.000000 0.000000 0.000000 1.548265 -2.651180 3.495949 -42.065063 -29.766405 14.899997 -2.003659 -62.643308 0.053758 -10.627948 -0.415827 0.066191 0.035214 0.280216 -0.000000 0.000000 0.000000 0.000000 0.000000 0.000000 0.000000 19.230255 -5.639920 1.835343 62.467024 1.709310 2.705435 2.962868 36.948970 0.018463 7.213606 9.563879 0.609432 0.026197 -0.105550 -0.000000 0.000000 0.000000 0.000000 0.000000 0.000000 0.000000 
6.791424 17.171978 0.282339 71.478335 87.958078 93.001610 -0.512244 -4.420859 1.565802 -1.084349 -4.460252 -2.352592 -8.031775 -4.476117 0.845333 12.664598 -6.774341 -4.791790 -3.801127 -0.298480 0.612810 0.000000 0.000000 0.000000 2.509152 -2.995109 3.354526 -40.002514 -30.969499 13.668748 -1.760088 -64.308714 0.057611 -10.766554 -0.408394 0.068094 0.058679 0.299178 0.000000 0.000000 0.000000 0.000000 0.000000 0.000000 0.000000 19.446306 -6.544985 1.827371 62.578332 0.598736 3.274092 2.954670 37.851617 0.018455 7.590077 9.559301 0.640934 0.024665 -0.102230 -0.000000 0.000000 0.000000 0.000000 0.000000 0.000000 0.000000 
7.060224 17.079689 0.334801 83.642164 87.588911 104.995288 -0.739042 -4.558299 1.725067 -1.129452 -4.587902 -2.284464 -8.007895 -4.595051 0.904009 12.791756 -7.593410 -4.967715 -3.770658 -0.295184 0.567822 0.000000 0.000000 0.000000 3.417199 -3.296495 3.195337 -37.830170 -32.083313 12.229308 -1.529401 -65.808518 0.061528 -10.904712 -0.401100 0.070181 0.083291 0.318203 0.000000 0.000000 0.000000 0.000000 0.000000 0.000000 0.000000 19.566103 -7.468276 1.813885 62.706035 -0.482548 3.711813 2.938222 38.780599 0.018440 7.900861 9.560232 0.667336 0.023348 -0.099704 -0.000000 0.000000 0.000000 0.000000 0.000000 0.000000 0.000000 
7.331112 16.981049 0.386663 92.641458 87.068198 113.741946 -1.002301 -4.707858 1.960210 -1.180208 -4.726432 -2.201881 -7.956743 -4.725409 0.955005 12.871285 -8.419008 -5.145603 -3.726844 -0.290895 0.522190 0.000000 0.000000 0.000000 4.257253 -3.561896 3.022068 -35.559533 -33.076806 10.602538 -1.314923 -67.146550 0.065455 -11.034285 -0.393024 0.072054 0.108588 0.337213 0.000000 0.000000 0.000000 0.000000 0.000000 0.000000 0.000000 19.584281 -8.403277 1.795012 62.855986 -1.534590 3.999595 2.915057 39.698216 0.018400 8.147183 9.552742 0.687739 0.022265 -0.097699 -0.000000 0.000000 0.000000 0.000000 0.000000 0.000000 0.000000 
7.605167 16.877057 0.437671 99.434400 86.461827 120.197335 -1.257375 -4.872737 2.265260 -1.227037 -4.881960 -2.106834 -7.881710 -4.873892 0.998903 12.902800 -9.238208 -5.320500 -3.671022 -0.285735 0.477457 0.000000 0.000000 0.000000 5.015011 -3.792097 2.838465 -33.206861 -33.914461 8.815858 -1.119197 -68.336327 0.069324 -11.149414 -0.383570 0.073714 0.134029 0.356002 0.000000 0.000000 0.000000 0.000000 0.000000 0.000000 0.000000 19.502961 -9.338155 1.771576 63.025837 -2.554638 4.134185 2.887312 40.571147 0.018329 8.332296 9.527140 0.701441 0.021466 -0.096006 -0.000000 0.000000 0.000000 0.000000 0.000000 0.000000 0.000000 
7.883440 16.768949 0.487773 104.785703 85.812518 125.138988 -1.475871 -5.052525 2.621175 -1.263389 -5.056074 -2.003349 -7.786598 -5.042601 1.039329 12.888278 -10.048504 -5.491386 -3.605151 -0.279850 0.434121 0.000000 0.000000 0.000000 5.681869 -3.986319 2.648131 -30.798029 -34.561369 6.901751 -0.944030 -69.397636 0.073050 -11.247443 -0.372826 0.075164 0.159072 0.374281 0.000000 0.000000 0.000000 0.000000 0.000000 0.000000 0.000000 19.331400 -10.270607 1.744498 63.205070 -3.524258 4.135572 2.857966 41.366657 0.018234 8.460103 9.480584 0.708742 0.021058 -0.094464 -0.000000 0.000000 0.000000 0.000000 0.000000 0.000000 0.000000 
